<?xml version="1.0" encoding="utf-8"?>
<!-- Generator: Adobe Illustrator 24.0.0, SVG Export Plug-In . SVG Version: 6.00 Build 0)  -->
<svg version="1.1" id="图层_1" xmlns="http://www.w3.org/2000/svg" xmlns:xlink="http://www.w3.org/1999/xlink" x="0px" y="0px"
	 viewBox="0 0 24 24" style="enable-background:new 0 0 24 24;" xml:space="preserve">
<style type="text/css">
	.st0{fill:#273444;}
	.st1{fill:#FFFFFF;}
</style>
<circle class="st0" cx="12" cy="12" r="11.3"/>
<g>
	<g>
		<path class="st1" d="M11.8,13.9c-0.5,0-1-0.2-1.4-0.6S9.9,12.5,9.9,12c0-0.5,0.2-1,0.6-1.4c0.4-0.4,0.9-0.6,1.4-0.6
			c0.5,0,1,0.2,1.4,0.6c0.4,0.4,0.6,0.9,0.6,1.4s-0.2,1-0.6,1.4C12.8,13.6,12.3,13.9,11.8,13.9z M11.8,10.8c-0.3,0-0.6,0.1-0.8,0.3
			s-0.3,0.5-0.3,0.8s0.1,0.6,0.3,0.8s0.5,0.3,0.8,0.3c0.3,0,0.6-0.1,0.8-0.3s0.3-0.5,0.3-0.8s-0.1-0.6-0.3-0.8
			C12.4,10.9,12.1,10.8,11.8,10.8z"/>
		<path class="st1" d="M11.8,16.4c-1.9,0-3.7-0.3-5.5-1c-0.2-0.1-0.3-0.3-0.2-0.5c0.1-0.2,0.3-0.3,0.6-0.2c3.3,1.2,7.1,1.2,10.4,0
			c0.2-0.1,0.4,0,0.5,0.2c0.1,0.2,0,0.4-0.2,0.5C15.5,16,13.7,16.4,11.8,16.4z"/>
	</g>
	<g>
		<path class="st1" d="M11.8,18.6c-2,0-3.9-1.1-4.9-2.9c-0.1-0.1-0.1-0.2,0-0.4c0.1-0.1,0.2-0.2,0.4-0.2h0.8c0.1,0,0.1,0,0.1,0
			c1.2,0.3,2.4,0.4,3.7,0.4s2.5-0.2,3.7-0.4c0.1,0,0.1,0,0.1,0h0.8c0.1,0,0.2,0.1,0.3,0.2s0.1,0.2,0,0.4
			C15.7,17.5,13.9,18.6,11.8,18.6z M8,15.9c0.9,1.2,2.3,1.9,3.8,1.9s2.9-0.7,3.8-1.9l0,0c-1.2,0.3-2.5,0.5-3.8,0.5S9.2,16.2,8,15.9
			L8,15.9z"/>
		<path class="st1" d="M8.1,10.8c-0.3,0-0.6-0.1-0.8-0.4L6.2,9.1c-0.3-0.4-0.3-0.9,0-1.4l1.1-1.4c0.2-0.2,0.5-0.4,0.9-0.4
			C8.5,5.9,8.8,6,9,6.3l0.8,1.1C10,7.6,10,7.8,9.8,7.9c-0.2,0.2-0.5,0.2-0.6,0L8.3,6.9C8.2,6.8,8.2,6.8,8.1,6.8S8,6.8,7.9,6.9
			L6.8,8.3c-0.1,0.1-0.1,0.2,0,0.3l1.1,1.3C8,10,8.1,10,8.1,10c0.1,0,0.1,0,0.2-0.1L9,9c0.2-0.1,0.4-0.1,0.6,0s0.2,0.4,0.1,0.6
			l-0.8,0.9C8.7,10.7,8.4,10.8,8.1,10.8z"/>
		<path class="st1" d="M8.1,11.9c-0.2,0-0.4-0.2-0.4-0.4v-1.1c0-0.2,0.2-0.4,0.4-0.4c0.2,0,0.4,0.2,0.4,0.4v1.1
			C8.5,11.7,8.3,11.9,8.1,11.9z"/>
		<path class="st1" d="M15.9,10.8c-0.3,0-0.6-0.1-0.8-0.4L14,9.2c-0.3-0.4-0.3-0.9,0-1.4l1.1-1.4C15.3,6.1,15.6,6,16,6
			c0.3,0,0.6,0.1,0.9,0.4l0.8,1.1c0.1,0.2,0.1,0.4-0.1,0.6c-0.2,0.1-0.4,0.1-0.6-0.1l-0.8-1.1C16.2,6.8,16,6.8,16,6.8
			c-0.1,0-0.1,0-0.2,0.1l-1.1,1.4c-0.1,0.1-0.1,0.2,0,0.4l1.1,1.3c0.1,0.1,0.2,0.1,0.2,0.1c0.1,0,0.1,0,0.2-0.1l0.8-0.9
			C17,8.9,17.3,8.9,17.5,9s0.2,0.4,0.1,0.6l-0.7,0.9C16.5,10.7,16.2,10.8,15.9,10.8z"/>
		<path class="st1" d="M15.9,11.9c-0.2,0-0.4-0.2-0.4-0.4v-1.1c0-0.2,0.2-0.4,0.4-0.4c0.2,0,0.4,0.2,0.4,0.4v1.1
			C16.3,11.7,16.2,11.9,15.9,11.9z"/>
	</g>
</g>
</svg>
