<?xml version="1.0" encoding="utf-8"?>
<!-- Generator: Adobe Illustrator 24.0.0, SVG Export Plug-In . SVG Version: 6.00 Build 0)  -->
<svg version="1.1" id="图层_1" xmlns="http://www.w3.org/2000/svg" xmlns:xlink="http://www.w3.org/1999/xlink" x="0px" y="0px"
	 viewBox="0 0 24 24" style="enable-background:new 0 0 24 24;" xml:space="preserve">
<style type="text/css">
	.st0{fill:#515151;}
</style>
<g>
	<g>
		<path class="st0" d="M11.8,14.9c-0.8,0-1.6-0.3-2.2-0.9c-0.6-0.6-0.9-1.4-0.9-2.2c0-0.8,0.3-1.6,0.9-2.2C10.2,9,11,8.6,11.8,8.6
			S13.4,9,14,9.5c0.6,0.6,0.9,1.4,0.9,2.2s-0.3,1.6-0.9,2.2C13.4,14.5,12.6,14.9,11.8,14.9z M11.8,9.9c-0.5,0-1,0.2-1.3,0.5
			c-0.3,0.3-0.5,0.8-0.5,1.3c0,0.5,0.2,1,0.5,1.3c0.3,0.3,0.8,0.5,1.3,0.5c0.5,0,1-0.2,1.3-0.5c0.3-0.3,0.5-0.8,0.5-1.3
			c0-0.5-0.2-1-0.5-1.3C12.7,10.1,12.3,9.9,11.8,9.9z"/>
		<path class="st0" d="M11.8,18.9c-3,0-6-0.5-8.9-1.6c-0.3-0.1-0.5-0.5-0.4-0.8C2.7,16.2,3,16,3.4,16.1c5.4,2,11.4,2,16.8,0
			c0.3-0.1,0.7,0,0.8,0.4c0.1,0.3,0,0.7-0.4,0.8C17.8,18.4,14.8,18.9,11.8,18.9z"/>
	</g>
	<g>
		<path class="st0" d="M11.8,22.5c-3.3,0-6.3-1.8-7.9-4.7c-0.1-0.2-0.1-0.4,0-0.6C4,17,4.2,16.9,4.5,16.9h1.3c0.1,0,0.1,0,0.2,0
			c1.9,0.5,3.9,0.7,5.9,0.7s4-0.3,5.9-0.7c0.1,0,0.1,0,0.2,0h1.3c0.2,0,0.4,0.1,0.5,0.3c0.1,0.2,0.1,0.4,0,0.6
			C18.1,20.7,15.1,22.5,11.8,22.5z M5.6,18.2c1.4,1.9,3.7,3.1,6.1,3.1s4.7-1.1,6.1-3.1h0c-2,0.5-4.1,0.8-6.1,0.8S7.6,18.7,5.6,18.2
			L5.6,18.2z"/>
		<path class="st0" d="M5.8,10c-0.5,0-1-0.2-1.3-0.6L2.7,7.2c-0.5-0.6-0.5-1.5,0-2.2l1.8-2.3c0.3-0.4,0.8-0.7,1.4-0.7
			c0.5,0,1,0.2,1.4,0.7l1.3,1.7c0.2,0.3,0.2,0.7-0.1,0.9C8.1,5.6,7.7,5.6,7.5,5.3L6.1,3.6C6,3.4,5.9,3.4,5.8,3.4
			c-0.1,0-0.2,0-0.4,0.2L3.7,5.9C3.5,6,3.5,6.3,3.7,6.4l1.8,2.1c0.1,0.1,0.3,0.2,0.3,0.2c0.1,0,0.2,0,0.3-0.2l1.2-1.5
			C7.6,6.8,8,6.8,8.3,7c0.3,0.2,0.3,0.6,0.1,0.9L7.1,9.3C6.8,9.7,6.3,10,5.8,10z"/>
		<path class="st0" d="M5.8,11.7c-0.4,0-0.6-0.3-0.6-0.6V9.3c0-0.4,0.3-0.6,0.6-0.6c0.4,0,0.6,0.3,0.6,0.6V11
			C6.4,11.4,6.1,11.7,5.8,11.7z"/>
		<path class="st0" d="M18.4,10c-0.5,0-1-0.2-1.3-0.6l-1.8-2.1c-0.5-0.6-0.5-1.5,0-2.2l1.8-2.3c0.3-0.4,0.8-0.7,1.4-0.7
			c0.5,0,1,0.2,1.4,0.7l1.3,1.7c0.2,0.3,0.2,0.7-0.1,0.9s-0.7,0.2-0.9-0.1l-1.3-1.7c-0.1-0.2-0.3-0.2-0.4-0.2c-0.1,0-0.2,0-0.4,0.2
			l-1.8,2.3c-0.1,0.2-0.1,0.4,0,0.6l1.8,2.1c0.1,0.1,0.3,0.2,0.3,0.2c0.1,0,0.2,0,0.3-0.2L20,7.1c0.2-0.3,0.6-0.3,0.9-0.1
			c0.3,0.2,0.3,0.6,0.1,0.9l-1.2,1.5C19.4,9.7,18.9,10,18.4,10z"/>
		<path class="st0" d="M18.4,11.7c-0.4,0-0.6-0.3-0.6-0.6V9.3c0-0.4,0.3-0.6,0.6-0.6c0.4,0,0.6,0.3,0.6,0.6V11
			C19.1,11.4,18.8,11.7,18.4,11.7z"/>
	</g>
</g>
</svg>
