<?xml version="1.0" standalone="no"?>
<!DOCTYPE svg PUBLIC "-//W3C//DTD SVG 20010904//EN"
 "http://www.w3.org/TR/2001/REC-SVG-20010904/DTD/svg10.dtd">
<svg version="1.0" xmlns="http://www.w3.org/2000/svg"
 width="700.000000pt" height="700.000000pt" viewBox="0 0 700.000000 700.000000"
 preserveAspectRatio="xMidYMid meet">
<metadata>
Created by potrace 1.11, written by Peter Selinger 2001-2013
</metadata>
<g transform="translate(0.000000,700.000000) scale(0.100000,-0.100000)"
fill="#000000" stroke="none">
<path d="M3377 6795 c-1 -1 -49 -5 -107 -8 -179 -11 -367 -40 -565 -89 -131
-32 -219 -59 -345 -105 -440 -163 -841 -418 -1175 -749 -345 -341 -586 -711
-770 -1184 -83 -211 -140 -442 -189 -770 -24 -159 -25 -666 -1 -760 2 -8 6
-40 10 -70 3 -30 7 -65 9 -76 3 -12 7 -38 10 -58 3 -19 10 -55 15 -78 6 -24
12 -54 14 -68 10 -56 71 -269 103 -361 71 -205 222 -526 286 -608 10 -13 18
-27 18 -32 0 -8 148 -226 184 -270 12 -14 32 -41 46 -59 99 -135 324 -362 495
-500 44 -36 82 -68 85 -71 13 -15 265 -182 350 -232 287 -167 672 -315 975
-373 11 -2 43 -8 70 -14 280 -55 705 -71 960 -36 17 2 57 7 90 11 214 24 613
130 792 211 17 8 34 14 38 14 15 0 282 133 372 185 449 263 852 645 1111 1053
26 41 58 90 71 110 41 64 158 294 206 407 135 317 229 708 252 1045 20 300 -3
644 -62 920 -3 14 -7 36 -10 50 -9 52 -85 308 -115 390 -109 300 -287 626
-481 881 -32 42 -64 83 -71 91 -7 7 -42 47 -78 88 -254 294 -618 577 -980 761
-58 29 -107 53 -110 54 -3 0 -31 13 -64 28 -32 15 -64 27 -70 27 -7 0 -16 4
-21 9 -10 9 -288 107 -328 115 -12 3 -69 16 -127 30 -197 47 -315 65 -520 82
-78 6 -367 13 -373 9z"/>
</g>
</svg>
